<svg width="109" height="107" viewBox="0 0 109 107" fill="none" xmlns="http://www.w3.org/2000/svg">
<g clip-path="url(#clip0_2_14)">
<path d="M0.0500599 52.06C0.22006 44.43 1.04006 36.94 3.29006 29.62C5.89006 21.12 11.4001 14.85 18.1401 9.44998C19.3001 8.51998 20.4901 7.60998 21.5301 6.54998C25.4601 2.49998 29.9201 0.0599805 35.8101 1.22998C36.9801 1.45998 38.2801 1.09998 39.5101 0.97998C50.9001 -0.15002 62.3001 -0.710019 73.6001 1.57998C80.7501 3.02998 86.9301 6.59998 92.4501 11.37C93.5201 12.29 94.9101 13.13 96.2601 13.39C103.23 14.72 107.05 21.01 105.04 27.86C104.63 29.26 104.66 30.96 105.01 32.39C109.57 50.72 109.7 68.71 100.26 85.7C95.0201 95.14 86.5301 100.78 76.2501 103.52C70.8101 104.97 65.2101 106.27 59.6301 106.58C53.4701 106.92 47.1801 106.49 41.0701 105.58C33.5101 104.45 25.9201 102.86 19.5601 98.16C16.7101 96.05 13.6201 93.89 11.6301 91.05C3.47006 79.39 -0.50994 66.35 0.0500599 52.06ZM102.23 32C97.2801 36.06 92.2101 36.95 86.8701 37.24C81.4801 37.53 75.9901 37.66 70.7501 38.78C66.2001 39.75 61.5401 41.38 57.6101 43.81C48.0401 49.73 45.5201 59.22 46.2701 69.81C46.4501 72.4 47.3801 74.98 48.2901 77.44C48.5701 78.2 49.9601 79.07 50.7401 78.99C51.5501 78.9 52.4001 77.81 52.9201 76.97C53.3201 76.32 53.4801 75.33 53.3501 74.56C52.8301 71.47 52.3701 68.35 51.5101 65.35C49.6501 58.84 51.5201 52.58 57.4301 49.44C60.3601 47.89 64.0701 47.54 67.4801 47.25C70.8701 46.96 74.0001 46.46 76.8601 44.45C80.7801 41.7 85.3101 40.81 89.9501 41.35C92.4201 41.64 95.1201 42.46 97.1201 43.88C103.12 48.15 101.76 58.35 94.7101 61.45C91.9101 62.68 88.6101 62.84 85.5101 63.3C81.8101 63.85 78.0101 63.88 74.3901 64.72C66.6001 66.53 62.3601 72.06 60.4101 79.48C59.9001 81.44 59.6401 83.77 62.1101 84.92C63.8901 85.75 66.0901 84.43 67.4801 81.89C67.5601 81.74 67.6101 81.58 67.7001 81.44C69.3101 78.62 70.7401 75.69 72.5601 73.02C74.8401 69.68 77.5801 66.8 81.8901 66.03C85.8001 65.33 89.2401 67.28 90.5201 71.03C92.3101 76.27 90.9001 81.22 89.1001 86.1C86.3401 93.57 80.4601 97.29 72.5201 96.33C69.4901 95.96 66.5801 94.71 63.5501 94.24C62.3901 94.06 60.3801 94.59 59.9801 95.41C59.4001 96.59 59.4801 98.55 60.1001 99.74C60.6401 100.77 62.2801 101.6 63.5401 101.79C65.9001 102.14 68.4201 102.36 70.7501 101.94C86.5701 99.09 97.1501 90.21 102.18 74.5C105.33 64.64 105.3 54.66 104.57 44.6C104.28 40.6 103.13 36.66 102.24 31.98L102.23 32ZM17.4701 12.77C12.7301 17.46 8.54006 21.97 6.52006 27.94C3.45006 37.04 2.70006 46.52 2.82006 56.04C2.96006 67.3 6.50006 77.61 12.4401 87.13C15.9001 92.68 20.3801 96.7 27.2501 97.32C33.0201 97.84 38.3901 96.9 42.9401 93.06C44.4101 91.82 45.4801 90.21 44.6001 88.23C43.7001 86.21 41.8001 85.78 39.7501 85.99C39.0901 86.06 38.4301 86.21 37.8101 86.43C34.3801 87.68 31.0001 89.09 27.5201 90.2C20.5801 92.42 16.0201 88.25 17.0001 81.1C17.3901 78.23 16.8101 75.21 16.5601 72.27C16.4401 70.79 15.9501 69.33 15.8601 67.85C15.7001 65.35 17.0301 63.55 19.0901 62.36C21.1601 61.16 23.1601 61.78 24.9001 63.14C25.9401 63.95 26.9301 64.9 27.6801 65.98C30.1201 69.45 32.4001 73.02 34.8101 76.51C35.7301 77.84 36.6301 79.69 38.7001 78.67C40.8901 77.59 40.0301 75.67 39.3601 74.09C37.4401 69.54 34.5801 65.75 30.2501 63.16C28.3201 62.01 26.5001 60.68 24.6801 59.37C19.8801 55.89 17.0501 51.17 15.7601 45.39C14.3301 38.96 14.3801 32.5 15.1501 26.04C15.6601 21.79 16.6101 17.59 17.4701 12.78V12.77ZM40.4401 3.69998C44.1501 8.20998 42.9701 12.09 40.2001 15.93C39.2301 17.27 38.4601 18.76 37.6501 20.22C34.2601 26.33 34.6401 33.12 34.4001 39.73C34.2301 44.44 34.8401 49.18 35.2501 53.9C35.3101 54.64 36.1801 55.31 36.6701 56.01C37.2701 55.41 38.1001 54.92 38.4401 54.2C40.1101 50.63 39.5701 46.92 39.0001 43.18C38.3601 39 37.4801 34.8 37.4501 30.61C37.3901 21.85 43.6601 15.9 52.3801 16.09C55.5301 16.16 58.7401 16.38 61.8001 17.08C71.7001 19.35 80.8601 16.49 90.4401 13.45C85.5001 8.81998 79.9501 5.77998 73.8101 4.28998C63.5901 1.80998 53.1501 2.41998 42.7601 3.19998C42.1401 3.24998 41.5301 3.46998 40.4401 3.70998V3.69998Z" fill="#466590"/>
<path d="M102.24 31.99C103.13 36.67 104.28 40.61 104.57 44.61C105.3 54.67 105.33 64.65 102.18 74.51C97.1501 90.22 86.5701 99.1 70.7501 101.95C68.4201 102.37 65.9101 102.15 63.5401 101.8C62.2801 101.61 60.6401 100.78 60.1001 99.75C59.4701 98.56 59.3901 96.6 59.9801 95.42C60.3801 94.61 62.3901 94.07 63.5501 94.25C66.5701 94.72 69.4901 95.97 72.5201 96.34C80.4601 97.31 86.3401 93.59 89.1001 86.11C90.9001 81.23 92.3101 76.28 90.5201 71.04C89.2401 67.29 85.8001 65.34 81.8901 66.04C77.5901 66.81 74.8401 69.69 72.5601 73.03C70.7401 75.7 69.3001 78.63 67.7001 81.45C67.6201 81.59 67.5601 81.76 67.4801 81.9C66.0901 84.44 63.8901 85.75 62.1101 84.93C59.6401 83.78 59.8901 81.45 60.4101 79.49C62.3601 72.07 66.6001 66.54 74.3901 64.73C78.0101 63.89 81.8101 63.86 85.5101 63.31C88.6101 62.85 91.9101 62.69 94.7101 61.46C101.76 58.37 103.13 48.17 97.1201 43.89C95.1201 42.47 92.4201 41.65 89.9501 41.36C85.3101 40.82 80.7801 41.71 76.8601 44.46C74.0001 46.46 70.8701 46.97 67.4801 47.26C64.0701 47.55 60.3601 47.9 57.4301 49.45C51.5201 52.59 49.6401 58.85 51.5101 65.36C52.3701 68.36 52.8301 71.48 53.3501 74.57C53.4801 75.34 53.3301 76.33 52.9201 76.98C52.4001 77.82 51.5401 78.91 50.7401 79C49.9601 79.08 48.5701 78.21 48.2901 77.45C47.3901 74.98 46.4601 72.41 46.2701 69.82C45.5201 59.23 48.0401 49.74 57.6101 43.82C61.5401 41.39 66.2001 39.76 70.7501 38.79C76.0001 37.67 81.4801 37.54 86.8701 37.25C92.2101 36.96 97.2801 36.07 102.23 32.01L102.24 31.99Z" fill="white"/>
<path d="M17.4701 12.77C16.6101 17.58 15.6601 21.78 15.1501 26.03C14.3801 32.49 14.3201 38.96 15.7601 45.38C17.0501 51.15 19.8801 55.87 24.6801 59.36C26.5001 60.68 28.3201 62.01 30.2501 63.15C34.5901 65.73 37.4401 69.53 39.3601 74.08C40.0301 75.67 40.8901 77.58 38.7001 78.66C36.6301 79.68 35.7301 77.84 34.8101 76.5C32.4101 73.01 30.1201 69.44 27.6801 65.97C26.9301 64.9 25.9301 63.94 24.9001 63.13C23.1601 61.77 21.1501 61.15 19.0901 62.35C17.0301 63.54 15.7001 65.34 15.8601 67.84C15.9501 69.32 16.4401 70.78 16.5601 72.26C16.8101 75.2 17.3901 78.22 17.0001 81.09C16.0301 88.24 20.5901 92.41 27.5201 90.19C31.0001 89.08 34.3701 87.66 37.8101 86.42C38.4301 86.19 39.0901 86.04 39.7501 85.98C41.7901 85.78 43.6901 86.2 44.6001 88.22C45.4901 90.2 44.4101 91.81 42.9401 93.05C38.3801 96.89 33.0201 97.83 27.2501 97.31C20.3801 96.69 15.9101 92.67 12.4401 87.12C6.50008 77.6 2.96008 67.29 2.82008 56.03C2.70008 46.52 3.45008 37.03 6.52008 27.93C8.54008 21.96 12.7301 17.45 17.4701 12.76V12.77Z" fill="white"/>
<path d="M40.4401 3.69997C41.5201 3.45997 42.1301 3.23997 42.7601 3.18997C53.1501 2.41997 63.5901 1.79997 73.8101 4.27997C79.9501 5.76997 85.5001 8.80997 90.4401 13.44C80.8601 16.48 71.7101 19.34 61.8001 17.07C58.7401 16.37 55.5301 16.15 52.3801 16.08C43.6501 15.89 37.3901 21.84 37.4501 30.6C37.4801 34.79 38.3601 39 39.0001 43.17C39.5701 46.9 40.1101 50.61 38.4401 54.19C38.1001 54.91 37.2701 55.41 36.6701 56C36.1801 55.3 35.3101 54.63 35.2501 53.89C34.8401 49.17 34.2301 44.43 34.4001 39.72C34.6401 33.12 34.2601 26.32 37.6501 20.21C38.4601 18.76 39.2301 17.27 40.2001 15.92C42.9701 12.08 44.1501 8.19997 40.4401 3.68997V3.69997Z" fill="white"/>
</g>
<defs>
<clipPath id="clip0_2_14">
<rect width="108.04" height="106.69" fill="white"/>
</clipPath>
</defs>
</svg>
